<svg xmlns="http://www.w3.org/2000/svg" xmlns:xlink="http://www.w3.org/1999/xlink" contentStyleType="text/css" height="838px" preserveAspectRatio="none" style="width:782px;height:838px;background:#FFFFFF;" version="1.1" viewBox="0 0 782 838" width="782px" zoomAndPan="magnify"><defs/><g><rect fill="#FFFFFF" height="627.4609" style="stroke:#181818;stroke-width:1.0;" width="10" x="167" y="112.4297"/><rect fill="#FFFFFF" height="598.3281" style="stroke:#181818;stroke-width:1.0;" width="10" x="354" y="141.5625"/><rect fill="none" height="380.3984" style="stroke:#000000;stroke-width:1.5;" width="517.5" x="258.5" y="185.6953"/><rect fill="none" height="232.7344" style="stroke:#000000;stroke-width:1.5;" width="497.5" x="268.5" y="268.0938"/><line style="stroke:#181818;stroke-width:0.5;stroke-dasharray:5.0,5.0;" x1="24" x2="24" y1="81.2969" y2="757.8906"/><line style="stroke:#181818;stroke-width:0.5;stroke-dasharray:5.0,5.0;" x1="171.5" x2="171.5" y1="81.2969" y2="757.8906"/><line style="stroke:#181818;stroke-width:0.5;stroke-dasharray:5.0,5.0;" x1="358.5" x2="358.5" y1="81.2969" y2="757.8906"/><line style="stroke:#181818;stroke-width:0.5;stroke-dasharray:5.0,5.0;" x1="540" x2="540" y1="81.2969" y2="757.8906"/><line style="stroke:#181818;stroke-width:0.5;stroke-dasharray:5.0,5.0;" x1="700" x2="700" y1="81.2969" y2="757.8906"/><text fill="#000000" font-family="sans-serif" font-size="14" lengthAdjust="spacing" textLength="32" x="5" y="77.9951">User</text><ellipse cx="24" cy="13.5" fill="#E2E2F0" rx="8" ry="8" style="stroke:#181818;stroke-width:0.5;"/><path d="M24,21.5 L24,48.5 M11,29.5 L37,29.5 M24,48.5 L11,63.5 M24,48.5 L37,63.5 " fill="none" style="stroke:#181818;stroke-width:0.5;"/><text fill="#000000" font-family="sans-serif" font-size="14" lengthAdjust="spacing" textLength="32" x="5" y="769.8857">User</text><ellipse cx="24" cy="781.6875" fill="#E2E2F0" rx="8" ry="8" style="stroke:#181818;stroke-width:0.5;"/><path d="M24,789.6875 L24,816.6875 M11,797.6875 L37,797.6875 M24,816.6875 L11,831.6875 M24,816.6875 L37,831.6875 " fill="none" style="stroke:#181818;stroke-width:0.5;"/><rect fill="#E2E2F0" height="30.2969" rx="2.5" ry="2.5" style="stroke:#181818;stroke-width:0.5;" width="131" x="106.5" y="50"/><text fill="#000000" font-family="sans-serif" font-size="14" lengthAdjust="spacing" textLength="117" x="113.5" y="69.9951">Merlin+ Software</text><rect fill="#E2E2F0" height="30.2969" rx="2.5" ry="2.5" style="stroke:#181818;stroke-width:0.5;" width="131" x="106.5" y="756.8906"/><text fill="#000000" font-family="sans-serif" font-size="14" lengthAdjust="spacing" textLength="117" x="113.5" y="776.8857">Merlin+ Software</text><rect fill="#E2E2F0" height="30.2969" rx="2.5" ry="2.5" style="stroke:#181818;stroke-width:0.5;" width="161" x="278.5" y="50"/><text fill="#000000" font-family="sans-serif" font-size="14" lengthAdjust="spacing" textLength="147" x="285.5" y="69.9951">EXC-1553UNET/P2-M</text><rect fill="#E2E2F0" height="30.2969" rx="2.5" ry="2.5" style="stroke:#181818;stroke-width:0.5;" width="161" x="278.5" y="756.8906"/><text fill="#000000" font-family="sans-serif" font-size="14" lengthAdjust="spacing" textLength="147" x="285.5" y="776.8857">EXC-1553UNET/P2-M</text><rect fill="#E2E2F0" height="30.2969" rx="2.5" ry="2.5" style="stroke:#181818;stroke-width:0.5;" width="142" x="469" y="50"/><text fill="#000000" font-family="sans-serif" font-size="14" lengthAdjust="spacing" textLength="128" x="476" y="69.9951">MIL-STD-1553 Bus</text><rect fill="#E2E2F0" height="30.2969" rx="2.5" ry="2.5" style="stroke:#181818;stroke-width:0.5;" width="142" x="469" y="756.8906"/><text fill="#000000" font-family="sans-serif" font-size="14" lengthAdjust="spacing" textLength="128" x="476" y="776.8857">MIL-STD-1553 Bus</text><rect fill="#E2E2F0" height="30.2969" rx="2.5" ry="2.5" style="stroke:#181818;stroke-width:0.5;" width="112" x="644" y="50"/><text fill="#000000" font-family="sans-serif" font-size="14" lengthAdjust="spacing" textLength="98" x="651" y="69.9951">Bus Controller</text><rect fill="#E2E2F0" height="30.2969" rx="2.5" ry="2.5" style="stroke:#181818;stroke-width:0.5;" width="112" x="644" y="756.8906"/><text fill="#000000" font-family="sans-serif" font-size="14" lengthAdjust="spacing" textLength="98" x="651" y="776.8857">Bus Controller</text><rect fill="#FFFFFF" height="627.4609" style="stroke:#181818;stroke-width:1.0;" width="10" x="167" y="112.4297"/><rect fill="#FFFFFF" height="598.3281" style="stroke:#181818;stroke-width:1.0;" width="10" x="354" y="141.5625"/><polygon fill="#181818" points="155,108.4297,165,112.4297,155,116.4297,159,112.4297" style="stroke:#181818;stroke-width:1.0;"/><line style="stroke:#181818;stroke-width:1.0;" x1="24" x2="161" y1="112.4297" y2="112.4297"/><text fill="#000000" font-family="sans-serif" font-size="13" lengthAdjust="spacing" textLength="121" x="31" y="107.3638">Start RT simulation</text><polygon fill="#181818" points="342,137.5625,352,141.5625,342,145.5625,346,141.5625" style="stroke:#181818;stroke-width:1.0;"/><line style="stroke:#181818;stroke-width:1.0;" x1="177" x2="348" y1="141.5625" y2="141.5625"/><text fill="#000000" font-family="sans-serif" font-size="13" lengthAdjust="spacing" textLength="99" x="184" y="136.4966">Configure as RT</text><polygon fill="#181818" points="188,166.6953,178,170.6953,188,174.6953,184,170.6953" style="stroke:#181818;stroke-width:1.0;"/><line style="stroke:#181818;stroke-width:1.0;stroke-dasharray:2.0,2.0;" x1="182" x2="353" y1="170.6953" y2="170.6953"/><text fill="#000000" font-family="sans-serif" font-size="13" lengthAdjust="spacing" textLength="153" x="194" y="165.6294">Configuration confirmed</text><path d="M258.5,185.6953 L335.5,185.6953 L335.5,192.8281 L325.5,202.8281 L258.5,202.8281 L258.5,185.6953 " fill="#EEEEEE" style="stroke:#000000;stroke-width:1.5;"/><rect fill="none" height="380.3984" style="stroke:#000000;stroke-width:1.5;" width="517.5" x="258.5" y="185.6953"/><text fill="#000000" font-family="sans-serif" font-size="13" font-weight="bold" lengthAdjust="spacing" textLength="32" x="273.5" y="198.7622">loop</text><text fill="#000000" font-family="sans-serif" font-size="11" font-weight="bold" lengthAdjust="spacing" textLength="94" x="350.5" y="197.9058">[RT Operation]</text><polygon fill="#181818" points="551,219.9609,541,223.9609,551,227.9609,547,223.9609" style="stroke:#181818;stroke-width:1.0;"/><line style="stroke:#181818;stroke-width:1.0;" x1="545" x2="699" y1="223.9609" y2="223.9609"/><text fill="#000000" font-family="sans-serif" font-size="13" lengthAdjust="spacing" textLength="136" x="557" y="218.895">Send command word</text><polygon fill="#181818" points="375,249.0938,365,253.0938,375,257.0938,371,253.0938" style="stroke:#181818;stroke-width:1.0;"/><line style="stroke:#181818;stroke-width:1.0;" x1="369" x2="539" y1="253.0938" y2="253.0938"/><text fill="#000000" font-family="sans-serif" font-size="13" lengthAdjust="spacing" textLength="152" x="381" y="248.0278">Receive command word</text><path d="M268.5,268.0938 L332.5,268.0938 L332.5,275.2266 L322.5,285.2266 L268.5,285.2266 L268.5,268.0938 " fill="#EEEEEE" style="stroke:#000000;stroke-width:1.5;"/><rect fill="none" height="232.7344" style="stroke:#000000;stroke-width:1.5;" width="497.5" x="268.5" y="268.0938"/><text fill="#000000" font-family="sans-serif" font-size="13" font-weight="bold" lengthAdjust="spacing" textLength="19" x="283.5" y="281.1606">alt</text><text fill="#000000" font-family="sans-serif" font-size="11" font-weight="bold" lengthAdjust="spacing" textLength="99" x="347.5" y="280.3042">[Transmit data]</text><line style="stroke:#181818;stroke-width:1.0;" x1="364" x2="406" y1="306.3594" y2="306.3594"/><line style="stroke:#181818;stroke-width:1.0;" x1="406" x2="406" y1="306.3594" y2="319.3594"/><line style="stroke:#181818;stroke-width:1.0;" x1="365" x2="406" y1="319.3594" y2="319.3594"/><polygon fill="#181818" points="375,315.3594,365,319.3594,375,323.3594,371,319.3594" style="stroke:#181818;stroke-width:1.0;"/><text fill="#000000" font-family="sans-serif" font-size="13" lengthAdjust="spacing" textLength="119" x="371" y="301.2935">Process command</text><polygon fill="#181818" points="528,344.4922,538,348.4922,528,352.4922,532,348.4922" style="stroke:#181818;stroke-width:1.0;"/><line style="stroke:#181818;stroke-width:1.0;" x1="364" x2="534" y1="348.4922" y2="348.4922"/><text fill="#000000" font-family="sans-serif" font-size="13" lengthAdjust="spacing" textLength="89" x="371" y="343.4263">Transmit data</text><polygon fill="#181818" points="688,373.625,698,377.625,688,381.625,692,377.625" style="stroke:#181818;stroke-width:1.0;"/><line style="stroke:#181818;stroke-width:1.0;" x1="540" x2="694" y1="377.625" y2="377.625"/><text fill="#000000" font-family="sans-serif" font-size="13" lengthAdjust="spacing" textLength="89" x="547" y="372.5591">Data received</text><line style="stroke:#000000;stroke-width:1.0;stroke-dasharray:2.0,2.0;" x1="268.5" x2="766" y1="386.625" y2="386.625"/><text fill="#000000" font-family="sans-serif" font-size="11" font-weight="bold" lengthAdjust="spacing" textLength="93" x="273.5" y="396.8354">[Receive data]</text><polygon fill="#181818" points="551,417.5625,541,421.5625,551,425.5625,547,421.5625" style="stroke:#181818;stroke-width:1.0;"/><line style="stroke:#181818;stroke-width:1.0;" x1="545" x2="699" y1="421.5625" y2="421.5625"/><text fill="#000000" font-family="sans-serif" font-size="13" lengthAdjust="spacing" textLength="66" x="557" y="416.4966">Send data</text><polygon fill="#181818" points="375,446.6953,365,450.6953,375,454.6953,371,450.6953" style="stroke:#181818;stroke-width:1.0;"/><line style="stroke:#181818;stroke-width:1.0;" x1="369" x2="539" y1="450.6953" y2="450.6953"/><text fill="#000000" font-family="sans-serif" font-size="13" lengthAdjust="spacing" textLength="82" x="381" y="445.6294">Receive data</text><line style="stroke:#181818;stroke-width:1.0;" x1="364" x2="406" y1="479.8281" y2="479.8281"/><line style="stroke:#181818;stroke-width:1.0;" x1="406" x2="406" y1="479.8281" y2="492.8281"/><line style="stroke:#181818;stroke-width:1.0;" x1="365" x2="406" y1="492.8281" y2="492.8281"/><polygon fill="#181818" points="375,488.8281,365,492.8281,375,496.8281,371,492.8281" style="stroke:#181818;stroke-width:1.0;"/><text fill="#000000" font-family="sans-serif" font-size="13" lengthAdjust="spacing" textLength="68" x="371" y="474.7622">Store data</text><polygon fill="#181818" points="528,524.9609,538,528.9609,528,532.9609,532,528.9609" style="stroke:#181818;stroke-width:1.0;"/><line style="stroke:#181818;stroke-width:1.0;" x1="364" x2="534" y1="528.9609" y2="528.9609"/><text fill="#000000" font-family="sans-serif" font-size="13" lengthAdjust="spacing" textLength="111" x="371" y="523.895">Send status word</text><polygon fill="#181818" points="688,554.0938,698,558.0938,688,562.0938,692,558.0938" style="stroke:#181818;stroke-width:1.0;"/><line style="stroke:#181818;stroke-width:1.0;" x1="540" x2="694" y1="558.0938" y2="558.0938"/><text fill="#000000" font-family="sans-serif" font-size="13" lengthAdjust="spacing" textLength="134" x="547" y="553.0278">Status word received</text><polygon fill="#181818" points="155,590.2266,165,594.2266,155,598.2266,159,594.2266" style="stroke:#181818;stroke-width:1.0;"/><line style="stroke:#181818;stroke-width:1.0;" x1="24" x2="161" y1="594.2266" y2="594.2266"/><text fill="#000000" font-family="sans-serif" font-size="13" lengthAdjust="spacing" textLength="115" x="31" y="589.1606">Monitor bus traffic</text><polygon fill="#181818" points="342,619.3594,352,623.3594,342,627.3594,346,623.3594" style="stroke:#181818;stroke-width:1.0;"/><line style="stroke:#181818;stroke-width:1.0;" x1="177" x2="348" y1="623.3594" y2="623.3594"/><text fill="#000000" font-family="sans-serif" font-size="13" lengthAdjust="spacing" textLength="112" x="184" y="618.2935">Request bus data</text><polygon fill="#181818" points="188,648.4922,178,652.4922,188,656.4922,184,652.4922" style="stroke:#181818;stroke-width:1.0;"/><line style="stroke:#181818;stroke-width:1.0;stroke-dasharray:2.0,2.0;" x1="182" x2="353" y1="652.4922" y2="652.4922"/><text fill="#000000" font-family="sans-serif" font-size="13" lengthAdjust="spacing" textLength="93" x="194" y="647.4263">Send bus data</text><polygon fill="#181818" points="35,677.625,25,681.625,35,685.625,31,681.625" style="stroke:#181818;stroke-width:1.0;"/><line style="stroke:#181818;stroke-width:1.0;stroke-dasharray:2.0,2.0;" x1="29" x2="166" y1="681.625" y2="681.625"/><text fill="#000000" font-family="sans-serif" font-size="13" lengthAdjust="spacing" textLength="113" x="41" y="676.5591">Display bus traffic</text><polygon fill="#181818" points="155,706.7578,165,710.7578,155,714.7578,159,710.7578" style="stroke:#181818;stroke-width:1.0;"/><line style="stroke:#181818;stroke-width:1.0;" x1="24" x2="161" y1="710.7578" y2="710.7578"/><text fill="#000000" font-family="sans-serif" font-size="13" lengthAdjust="spacing" textLength="119" x="31" y="705.6919">Stop RT simulation</text><polygon fill="#181818" points="347,735.8906,357,739.8906,347,743.8906,351,739.8906" style="stroke:#181818;stroke-width:1.0;"/><line style="stroke:#181818;stroke-width:1.0;" x1="172" x2="353" y1="739.8906" y2="739.8906"/><text fill="#000000" font-family="sans-serif" font-size="13" lengthAdjust="spacing" textLength="100" x="179" y="734.8247">Stop simulation</text><!--SRC=[XLFBQiCm4BphAvPUYobjoIM77kBaK6ZQO3lGgoglYq2sN6cTqB-l7d7yYA4-UF5gTdP6ZBaWRU1eqR2M6v92jhmXkDkZKRAvXrnNTEO6xu1RYCqfSFUP9e-hrVFnVLSy79wIVK1kyIG5pYXVtvAys0OqR3eRWAvEKQu1gMx8QANGH4pAc5S8oSj5mXfoSaEG5M1btIbEKZUC2v8dJjZhPB7wiQXdxPah-TqPzBnPCOnS1CS2oMXJFn9sWF1VfiQICQLrwnLyj1WF6RXda_fzpeNJY4tf1kgQkthMfem0Pt2aA4E1yeItkF3YYg0mlB6r92WvyT3rJwzqO3eOBT3Qdca16LGjqrrKRT8rR5qVJ9GLML1Pl0gTZitSBd7EdVvZ8tU1786m6Lt7p4fOQOcJMpI_N-ya7uu6Gvxm9avxtKZ_8tmvE1bULL8if2V3dmuj1LGGk12NeEaAw3aSmAzqbojjg_ZlPD52k6EoHjc-5HD08qI9yp2FEd7y3m00]--></g></svg>